<?xml version="1.0" encoding="utf-8"?>
<!-- Generator: Adobe Illustrator 26.0.3, SVG Export Plug-In . SVG Version: 6.00 Build 0)  -->
<svg version="1.0" id="Layer_1" xmlns="http://www.w3.org/2000/svg" xmlns:xlink="http://www.w3.org/1999/xlink" x="0px" y="0px"
	 viewBox="0 0 1134.2 810.7" style="enable-background:new 0 0 1134.2 810.7;" xml:space="preserve">
<style type="text/css">
	.st0{fill:#00AE4D;}
	.st1{fill:none;stroke:#00AE4D;stroke-width:0.56;stroke-miterlimit:2.61;}
</style>
<g id="g10">
	<path id="path28" class="st0" d="M712.7,72.7H407.1v505.4h305.5V72.7z M404,66.3h315.1v518.2H400.8V66.3"/>
	<g id="g30">
		<path id="path32" class="st0" d="M562.3,486.5h-2.9l-17.1-28.4c-5.3-8.8-8-16-8-21.5c-0.2-5.5,2.4-10.8,6.9-14
			c4.5-3.4,10.8-5.1,18.8-5.1c8.2,0,14.7,1.7,19.6,5.1c4.6,3,7.4,8.2,7.3,13.7c-0.1,4.2-1.2,8.3-3.1,12.1
			C581.7,452.7,574.6,465.4,562.3,486.5"/>
	</g>
	<g id="g34">
		<path id="path36" class="st0" d="M562.3,500.5h-2.9l-17.1,28.4c-5.3,8.8-8,16-8,21.5c-0.2,5.5,2.4,10.8,6.9,14
			c4.5,3.4,10.8,5.1,18.8,5.1c8.2,0,14.7-1.7,19.6-5.1c4.6-3,7.4-8.2,7.3-13.7c-0.1-4.2-1.2-8.3-3.1-12.1
			C581.7,534.2,574.6,521.5,562.3,500.5"/>
	</g>
	<g id="g38">
		<path id="path40" class="st0" d="M564.6,495.6l-1.4,2.5c10.5,12.3,24.9,36.7,37.9,44.5c4.4,2.8,9.9,3.2,14.6,0.9
			c5-2.2,9.1-5.5,13.1-12.4c4.1-7.1,6.1-13.5,5.9-19.4c-0.2-5.8-2.6-10.1-7.2-12.9c-3.4-1.9-7.3-3-11.2-3.2
			C611.6,495.2,587.5,495.2,564.6,495.6"/>
	</g>
	<g id="g42">
		<path id="path44" class="st0" d="M564.6,490.9l-1.4-2.5c10.5-12.3,24.9-36.7,37.9-44.5c4.4-2.9,9.9-3.2,14.6-0.9
			c5,2.2,9.1,5.5,13.1,12.4c4.1,7.1,6.1,13.5,5.9,19.4c-0.2,5.8-2.6,10.1-7.2,12.9c-3.4,1.9-7.3,3-11.2,3.2
			C611.6,491.3,587.5,491.3,564.6,490.9"/>
	</g>
	<g id="g46">
		<path id="path48" class="st0" d="M556.1,495.6l1.4,2.5c-10.5,12.3-24.9,36.7-37.8,44.5c-4.4,2.8-9.9,3.2-14.6,0.9
			c-5-2.2-9.1-5.5-13.1-12.4c-4.1-7.1-6.1-13.5-5.9-19.4s2.6-10.2,7.2-12.9c3.4-1.9,7.3-3,11.2-3.2
			C509.1,495.2,533.2,495.2,556.1,495.6"/>
	</g>
	<g id="g50">
		<path id="path52" class="st0" d="M556.1,490.9l1.4-2.5c-10.5-12.3-24.9-36.7-37.8-44.5c-4.4-2.9-9.9-3.2-14.6-0.9
			c-5,2.2-9.1,5.5-13.1,12.4c-4.1,7.1-6.1,13.5-5.9,19.4s2.6,10.1,7.2,12.9c3.4,1.9,7.3,3,11.2,3.2
			C509.1,491.3,533.2,491.3,556.1,490.9"/>
	</g>
	<g id="g54">
		<path id="path56" class="st0" d="M657.6,401h-1.8l-10.6-17.6c-3.3-5.5-5-9.9-5-13.4c-0.1-3.4,1.5-6.7,4.3-8.7
			c2.8-2.1,6.7-3.2,11.7-3.2c5,0,9.2,1.1,12.2,3.2c2.9,1.9,4.6,5.1,4.5,8.5c-0.1,2.6-0.7,5.2-1.9,7.5
			C669.7,380,665.3,387.9,657.6,401"/>
	</g>
	<g id="g58">
		<path id="path60" class="st0" d="M657.6,409.7h-1.8l-10.6,17.6c-3.3,5.5-5,9.9-5,13.4c-0.1,3.4,1.5,6.7,4.3,8.7
			c2.8,2.1,6.7,3.2,11.7,3.2c5.1,0,9.2-1,12.2-3.1c2.9-1.9,4.6-5.1,4.5-8.5c-0.1-2.6-0.8-5.2-1.9-7.5
			C669.7,430.7,665.3,422.8,657.6,409.7"/>
	</g>
	<g id="g62">
		<path id="path64" class="st0" d="M659.1,406.7l-0.9,1.5c6.5,7.7,15.5,22.8,23.5,27.7c2.7,1.8,6.2,2,9.1,0.6
			c3.1-1.4,5.7-3.4,8.1-7.7s3.8-8.4,3.6-12c0-3.3-1.7-6.3-4.5-8c-2.1-1.2-4.5-1.9-7-2C688.3,406.5,673.3,406.5,659.1,406.7"/>
	</g>
	<g id="g66">
		<path id="path68" class="st0" d="M659.1,403.8l-0.9-1.5c6.5-7.7,15.5-22.8,23.5-27.7c2.7-1.8,6.2-2,9.1-0.5
			c3.1,1.4,5.7,3.4,8.1,7.7s3.8,8.4,3.6,12c0,3.3-1.7,6.3-4.5,8c-2.1,1.2-4.5,1.9-7,2C688.3,404,673.3,404,659.1,403.8"/>
	</g>
	<g id="g70">
		<path id="path72" class="st0" d="M653.8,406.7l0.9,1.5c-6.5,7.7-15.5,22.8-23.5,27.7c-2.7,1.8-6.2,2-9.1,0.6
			c-3.1-1.4-5.6-3.4-8.1-7.7c-2.5-4.3-3.8-8.4-3.6-12c0-3.3,1.7-6.3,4.5-8c2.1-1.2,4.5-1.9,7-2C624.6,406.5,639.6,406.5,653.8,406.7
			"/>
	</g>
	<g id="g74">
		<path id="path76" class="st0" d="M653.8,403.8l0.9-1.5c-6.5-7.7-15.5-22.8-23.5-27.7c-2.7-1.8-6.2-2-9.1-0.5
			c-3.1,1.4-5.6,3.4-8.1,7.7c-2.5,4.3-3.8,8.4-3.6,12c0,3.3,1.7,6.3,4.5,8c2.1,1.2,4.5,1.9,7,2C624.6,404,639.6,404,653.8,403.8"/>
	</g>
	<g id="g78">
		<path id="path80" class="st0" d="M465.7,401h-1.8l-10.6-17.6c-3.3-5.5-5-9.9-5-13.4c-0.1-3.4,1.5-6.7,4.3-8.7
			c2.8-2.1,6.7-3.2,11.7-3.2s9.2,1.1,12.2,3.2c2.9,1.8,4.6,5.1,4.5,8.5c-0.1,2.6-0.7,5.2-1.9,7.5C477.7,380,473.3,387.9,465.7,401"
			/>
	</g>
	<g id="g82">
		<path id="path84" class="st0" d="M465.7,409.7h-1.8l-10.6,17.6c-3.3,5.5-5,9.9-5,13.4c-0.1,3.4,1.5,6.7,4.3,8.7
			c2.8,2.1,6.7,3.2,11.7,3.2c5.1,0,9.2-1,12.2-3.1c2.9-1.9,4.6-5.1,4.5-8.5c-0.1-2.6-0.7-5.2-1.9-7.5
			C477.7,430.7,473.3,422.8,465.7,409.7"/>
	</g>
	<g id="g86">
		<path id="path88" class="st0" d="M467.1,406.7l-0.9,1.5c6.5,7.7,15.5,22.8,23.5,27.7c2.7,1.8,6.2,2,9.1,0.6
			c3.1-1.4,5.6-3.4,8.1-7.7s3.8-8.4,3.6-12c0-3.3-1.7-6.3-4.5-8c-2.1-1.2-4.5-1.9-7-2C496.3,406.5,481.3,406.5,467.1,406.7"/>
	</g>
	<g id="g90">
		<path id="path92" class="st0" d="M467.1,403.8l-0.9-1.5c6.5-7.7,15.5-22.8,23.5-27.7c2.7-1.8,6.2-2,9.1-0.5
			c3.1,1.4,5.6,3.4,8.1,7.7s3.8,8.4,3.6,12c0,3.3-1.7,6.3-4.5,8c-2.1,1.2-4.5,1.9-7,2C496.3,404,481.3,404,467.1,403.8"/>
	</g>
	<g id="g94">
		<path id="path96" class="st0" d="M461.9,406.7l0.9,1.5c-6.6,7.7-15.5,22.8-23.5,27.7c-2.7,1.8-6.2,2-9.1,0.6
			c-3.1-1.4-5.7-3.4-8.1-7.7s-3.8-8.4-3.6-12c0-3.3,1.7-6.3,4.5-8c2.1-1.2,4.5-1.9,7-2C432.7,406.5,447.6,406.5,461.9,406.7"/>
	</g>
	<g id="g98">
		<path id="path100" class="st0" d="M461.9,403.8l0.9-1.5c-6.6-7.7-15.5-22.8-23.5-27.7c-2.7-1.8-6.2-2-9.1-0.5
			c-3.1,1.4-5.7,3.4-8.1,7.7s-3.8,8.4-3.6,12c0,3.3,1.7,6.3,4.5,8c2.1,1.2,4.5,1.9,7,2C432.7,404,447.6,404,461.9,403.8"/>
	</g>
	<g id="g102">
		<path id="path104" class="st0" d="M560.2,340.4c-2.8,0.4-5.4,1.6-7.5,3.5c-7.2,8.8-21,16.2-30.5,10.1c-1.9-1.2-4.3-3.2-5.4-5.3
			c-2.4-4.8-2.1-8.5,1-12.6c1.7-2.3,2.6-3.4,2.6-3.5c0-0.4-1.7-2.5-4.3-6.3l-1.2-2.8c-2.3-11.5,14.2-20.9,23.5-16.1
			c2.5,1.3,5.8,2.7,8.1,4.7c5.1,4.4,8.9,9.7,15,10.2c5.5,0.4,12.6-11.7,21.2-15.3c10.1-4.3,25.3,3.9,23.3,16.1l-1.2,2.8
			c-2.6,3.8-4.3,5.9-4.3,6.3c0,0.1,0.9,1.2,2.6,3.5c3,4.1,3.4,7.9,1,12.6c-1.1,2.1-3.5,4.1-5.4,5.3c-9.5,6.1-23.9-0.1-31-9.4
			C566,341.7,563.1,340.3,560.2,340.4"/>
	</g>
	<g id="g106">
		<path id="path108" class="st0" d="M560.2,285c-2.8,0.4-5.4,1.6-7.5,3.5c-7.2,8.8-21,16.2-30.5,10.1c-1.9-1.2-4.3-3.2-5.4-5.3
			c-2.4-4.8-2.1-8.5,1-12.6c1.7-2.3,2.6-3.4,2.6-3.5c0-0.4-1.7-2.6-4.3-6.3l-1.2-2.8c-2.2-11.5,14.2-20.9,23.5-16.1
			c2.5,1.3,5.8,2.7,8.1,4.7c5.1,4.4,8.9,9.7,15,10.2c5.5,0.4,12.6-11.7,21.2-15.4c10.1-4.3,25.3,3.9,23.3,16.1l-1.2,2.8
			c-2.6,3.8-4.3,5.9-4.3,6.3c0,0.1,0.9,1.2,2.6,3.5c3,4.1,3.4,7.9,1,12.6c-1.1,2.1-3.5,4.1-5.4,5.3c-9.5,6.1-23.9-0.1-31-9.4
			C566,286.3,563.1,284.9,560.2,285"/>
	</g>
	<g id="g110">
		<path id="path112" class="st0" d="M560.2,228.3c-2.8,0.4-5.4,1.6-7.5,3.4c-7.2,8.8-21,16.2-30.5,10.1c-1.9-1.2-4.3-3.2-5.4-5.3
			c-2.4-4.8-2.1-8.5,1-12.6c1.7-2.3,2.6-3.4,2.6-3.5c0-0.4-1.7-2.6-4.3-6.3l-1.2-2.8c-2.3-11.5,14.2-20.9,23.5-16.1
			c2.5,1.3,5.8,2.7,8.1,4.7c5.1,4.4,8.9,9.7,15,10.1c5.5,0.4,12.6-11.6,21.2-15.3c10.1-4.3,25.3,3.9,23.3,16.1l-1.2,2.8
			c-2.6,3.8-4.3,5.9-4.3,6.3c0,0.1,0.9,1.2,2.6,3.5c3,4.1,3.4,7.9,1,12.6c-1.1,2.1-3.5,4.1-5.4,5.3c-9.5,6.1-23.9-0.1-31-9.4
			C566,229.5,563.1,228.1,560.2,228.3"/>
	</g>
	<g id="g114">
		<path id="path116" class="st0" d="M560.2,172.2c-2.8,0.4-5.4,1.6-7.5,3.4c-7.2,8.8-21,16.2-30.5,10.1c-1.9-1.2-4.3-3.2-5.4-5.3
			c-2.4-4.8-2.1-8.5,1-12.6c1.7-2.3,2.6-3.4,2.6-3.5c0-0.4-1.7-2.6-4.3-6.3l-1.2-2.8c-2.3-11.5,14.2-20.9,23.5-16.1
			c2.5,1.3,5.8,2.7,8.1,4.7c5.1,4.3,8.9,9.7,15,10.1c5.5,0.4,12.6-11.6,21.2-15.3c10.1-4.3,25.3,3.9,23.3,16.1l-1.2,2.8
			c-2.6,3.8-4.3,5.9-4.3,6.3c0,0.1,0.9,1.2,2.6,3.5c3,4.1,3.4,7.9,1,12.6c-1.1,2.1-3.5,4.1-5.4,5.3c-9.5,6.1-23.9-0.1-31-9.3
			C566,173.4,563.1,172.1,560.2,172.2"/>
	</g>
	<g id="g118">
		<path id="path120" class="st0" d="M560.2,121.2c-2,0.3-3.9,1.1-5.4,2.5c-5.3,6.4-15.3,11.8-22.2,7.3c-1.6-1-2.9-2.3-3.9-3.9
			c-1.8-3.5-1.5-6.2,0.7-9.2c1.2-1.7,1.9-2.5,1.9-2.6c0-0.3-1.2-1.9-3.1-4.6l-0.9-2c-1.6-8.4,10.3-15.2,17.1-11.7
			c2.1,0.9,4.1,2.1,5.9,3.4c3.7,3.2,6.5,7.1,10.9,7.4c4,0.3,9.2-8.5,15.5-11.2c7.3-3.1,18.5,2.8,17,11.8l-0.9,2
			c-1.1,1.5-2.2,3-3.2,4.6c0,0,0.6,0.9,1.9,2.6c2.2,3,2.5,5.7,0.7,9.2c-1,1.6-2.3,2.9-3.9,3.8c-6.9,4.4-17.4-0.1-22.5-6.8
			C564.5,122.1,562.4,121.1,560.2,121.2"/>
	</g>
	<g id="g122">
		<path id="path124" class="st0" d="M560.2,397.2c-2.8,0.4-5.4,1.6-7.5,3.5c-7.2,8.8-21,16.2-30.5,10.1c-1.9-1.2-4.3-3.2-5.4-5.3
			c-2.4-4.8-2.1-8.5,1-12.6c1.7-2.3,2.6-3.4,2.6-3.5c0-0.4-1.7-2.5-4.3-6.3l-1.2-2.8c-2.2-11.5,14.2-20.9,23.5-16.1
			c2.5,1.3,5.8,2.7,8.1,4.7c5.1,4.4,8.9,9.7,15,10.1c5.5,0.4,12.6-11.6,21.2-15.3c10.1-4.3,25.3,3.9,23.3,16.1l-1.2,2.8
			c-2.6,3.8-4.3,5.9-4.3,6.3c0,0.1,0.9,1.2,2.6,3.5c3,4.1,3.4,7.9,1,12.6c-1.1,2.1-3.5,4.1-5.4,5.3c-9.5,6.1-23.9-0.1-31-9.4
			C566,398.4,563.2,397.1,560.2,397.2"/>
	</g>
	<g id="g126">
		<path id="path128" class="st1" d="M560.5,84.8l1,332.4"/>
	</g>
	<g id="g130">
		<path id="path132" class="st0" d="M724.7,742.2V614.8h43.6l39.3,57v-57H848v127.4l-39.9-0.5l-36.2-50.4l-1.1,50.9"/>
	</g>
	<path id="path134" class="st0" d="M661.5,742.2h43.1V614.8h-43.1V742.2z"/>
	<g id="g136">
		<path id="path138" class="st0" d="M390.8,614.8h46.1v63.3c0,7.6-4.3,29.8,13.5,30.3c13.4,0.4,12.1-20.9,12.1-30.3v-63.3h45.6v72
			c0,19.9-4.7,34.4-14.2,43.7c-9.5,9.2-24.5,13.8-45,13.9c-20.4,0-35.1-4.6-44.3-13.7c-9.2-9.1-13.8-23.7-13.8-43.8"/>
	</g>
	<g id="g140">
		<path id="path142" class="st0" d="M384.5,709.4v32.9h-98.3V614.8h45.3v94.6"/>
	</g>
	<g id="g144">
		<path id="path146" class="st0" d="M575.6,649.1v18.7h13.3c9.8,0,12.4-5.9,12.4-9.1c0-7.6-5.8-9.6-9.7-9.6H575.6z M531.4,742.1
			V614.8h63.3c15.5,0,26.7,3.1,33.7,9.2c20.5,18,23.6,45.5,3.9,65.5c-7.3,7.5-16.5,11.2-25.2,11.2h-31.7v41.4"/>
	</g>
</g>
</svg>
