<svg version="1.2" xmlns="http://www.w3.org/2000/svg" viewBox="0 0 1577 920" width="1577" height="920">
	<title>Mankind_Serving_Life-svg</title>
	<style>
		.s0 { fill: #0054a4 } 
		.s1 { fill: #0a94d6 } 
	</style>
	<g id="#0054a4ff">
		<path id="Layer" fill-rule="evenodd" class="s0" d="m1154.5 0h1.2c-14.3 31.4-28.2 62.9-42.5 94.3-0.3-13-0.5-26.1-0.6-39.2-49.5 38.8-99.1 77.5-148.5 116.4 10.6 23.4 14.8 49.7 11.4 75.2-3.9 30.9-18.8 59.7-39.1 83.1-24.1 27.8-55.2 48.8-88.3 64.3-43 19.9-89.8 30.7-137 33.8-53.2 3.5-107.2-2.5-157.9-19.4-38.8-13.1-75.9-32.5-106.4-60.1-25.4-22.9-46-52.2-54.3-85.7-8-31-4.3-64.7 9.4-93.6 16.9-36 46.5-64.7 79.8-85.8 38.4-24.3 82.2-39.6 126.8-47.6 53.3-9.3 108.3-8.5 161.3 2.6 42.1 9 83.1 24.7 119.1 48.7 25.9 17.3 49 39.3 65.5 65.8 47.5-37.4 95.1-74.7 142.6-112.1q-23.7-1.5-47.5-3.1c35-12.6 70.1-24.7 105-37.6zm-606.5 67.5c-34.7 12.7-67.9 31.2-94.9 56.7-18.9 18-34.6 40-43 64.9-7.5 22.2-8.7 46.5-3.1 69.3 5.3 22 16.5 42.2 31 59.5 23.3 27.8 54.2 48.4 87 63.4 44.3 20.1 92.8 30.2 141.3 32.1 51.1 1.9 102.7-5.2 150.8-22.7 36.8-13.5 71.9-33.4 99.6-61.5 21.9-22.2 38.8-50.5 43.4-81.7 3.5-22.6 0.2-46-8.5-67.2-5.4 3.7-10.2 8.2-15.5 12.1-1.1 0.7-2.3 2-3.6 1-2.3-5.8-5-11.4-7.2-17.1l0.1-0.1-0.1-0.2c5.7-4.6 11.5-9.1 17.3-13.7-22.8-38-59.9-65.3-99.5-83.9-44.6-20.9-93.6-31.3-142.6-33.5-51.6-2.1-103.9 4.9-152.5 22.6z"/>
		<path id="Layer" class="s0" d="m56.9 478.3q34.4 0 68.7 0 5.7 71.6 11.4 143.1c28.5-47.7 56.8-95.4 85.3-143.1 22.6 0.1 45.2-0.2 67.8 0.2-18.6 71.7-37.7 143.2-56.9 214.7-15.3-0.1-30.6 0-45.9-0.1 12.9-49.2 25.9-98.4 38.7-147.6-29.6 49.1-58.9 98.4-88.4 147.6q-20.7 0-41.4 0c-3-44.6-6-89.3-8.9-133.9-0.4-4.7-0.5-9.4-1.3-14-4.5 19.4-10 38.6-14.9 57.9-7.9 30-15.7 60-23.7 90.1-15.7-0.1-31.3 0-47-0.1 18.2-71.7 37.7-143.2 56.5-214.8z"/>
		<path id="Layer" class="s0" d="m602.3 636.3q20.8-79 41.7-158c15.1 0.1 30.2-0.1 45.2 0.2-9.7 37.2-19.2 74.4-28.8 111.6 2.6-0.2 5.8 0.9 8-1 20.3-16 40.6-32 61-48q24.4 0 48.8 0c-25.1 21-50.2 41.9-75.3 62.8 14.1 29.7 28.4 59.4 42.4 89.2-16.8 0.1-33.7 0-50.6 0.1-11.1-25.6-22-51.2-33-76.8q-4.2-0.1-8.4 0-9.9 38.4-19.9 76.7-23.5 0-47 0c5.3-18.9 10.7-37.9 15.9-56.8z"/>
		<path id="Layer" fill-rule="evenodd" class="s0" d="m1151.5 561.7c7.2-27.8 14.3-55.6 21.7-83.4 15.6 0.1 31.3 0 46.9 0-12.2 47.9-25 95.7-37.7 143.5-6.5 23.8-12.6 47.6-19.2 71.4-15.6-0.2-31.2 0-46.9-0.1 2-6.3 2.8-13 5.5-19-0.8-1.1-2 0.7-2.6 1.2-6.9 7-15.4 12.7-24.9 15.5-10 3.2-20.6 2.2-30.9 2.3-11.7 0-24-0.8-34.6-6.5-6.9-3.7-12-10.3-13.7-18-2.7-11.1-0.6-22.6 2.1-33.4 3.5-12.5 7.3-24.9 10.7-37.4 3.4-12.9 8.5-25.5 16.9-35.9 7.9-10 19.2-17.1 31.5-20.3 13.9-3.9 28.4-2.8 42.7-2.9 9.3 0 19.5 2.2 25.9 9.5 3.5 3.7 4.9 8.7 6.6 13.5zm-54.3 16.6c-6.1 0.9-12.2 3.2-16.6 7.8-4.5 4.6-6.9 10.9-8.4 17.1-2.5 9.9-5.7 19.6-7.8 29.6-1.2 7.1-1.6 16.2 4.8 21.1 7 5.1 16.1 3.6 24.1 3.9 7.4 0.3 15-0.7 21.4-4.7 7.4-4.5 12.6-12.1 15.1-20.3 2.7-9.4 5.9-18.7 8.7-28.1 1.9-6.6 1.9-14.3-2.4-20-3.9-5.3-10.8-7.2-17.2-7-7.2 0.1-14.5-0.4-21.7 0.6z"/>
		<path id="Layer" class="s0" d="m1249.3 478.3c4.4 0 8.9 0 13.3 0.1-19.2 71.5-38.4 143.1-57.5 214.7-4.5 0.1-9 0-13.4 0 19.2-71.6 38.3-143.2 57.6-214.8z"/>
		<path id="Layer" class="s0" d="m1290.4 478.4c7.9-0.2 15.8 0 23.7-0.1-19.1 71.6-38.3 143.2-57.5 214.8q-11.9 0.1-23.7 0c19.1-71.6 38.4-143.1 57.5-214.7z"/>
		<path id="Layer" class="s0" d="m1341.3 478.3q18.2 0 36.4 0-28.8 107.4-57.6 214.8-18.2 0-36.4 0c19.2-71.6 38.4-143.2 57.6-214.8z"/>
		<path id="Layer" class="s0" d="m1405.8 478.4c35.6 25.9 71.3 51.9 106.9 77.8 21.4 15.7 43 31.1 64.3 47-41.5 16.7-83.2 32.7-124.8 49.1-34.7 13.6-69.3 27.3-104 40.8 19.2-71.6 38.4-143.1 57.6-214.7z"/>
		<path id="Layer" fill-rule="evenodd" class="s0" d="m321.4 542.1c12-3.8 24.7-4.7 37.3-4.7 12.8 0.1 25.8-0.5 38.3 2.9 8.5 2.2 16.8 7.5 19.9 16.1 4.2 11.3 1.9 23.6-0.8 35-8.8 33.9-18 67.7-26.8 101.6-12.6 0.3-25.1 0.1-37.7 0.1 1.1-4.1 2.3-8.3 3.5-12.5-4.3 4-8.9 7.9-14.6 9.7-11 3.7-22.7 2.6-34.1 2.8-11 0.1-22.7 0.3-32.5-5.2-6-3.4-9.7-9.9-10.4-16.6-1.3-11.9 3.1-23.3 6.1-34.6 2.6-10 7-19.9 14.4-27.3 6.5-6.5 15.1-10.5 24-12.5 11.8-2.6 23.9-1.7 35.8-1.9 7.9 0.1 16.3-0.1 23.4 3.8 4.1 2.3 5.8 6.8 7 11.1 1.4-7 3.4-13.8 4.7-20.8 0.9-5.2 0-11.4-4.6-14.6-5.4-3.9-12.5-3.1-18.8-3.2-6.1 0.2-12.5-0.7-18.3 1.6-3.7 1.6-5.6 5.3-7.5 8.5-14.3-0.1-28.7 0.1-43-0.1 2.8-9.1 6.6-18.3 13.1-25.5 5.7-6.5 13.4-11 21.6-13.7zm5.8 87.3c-7.1 1.2-12.5 7.4-14.3 14.2-1.2 4-2.5 8.8 0.2 12.5 2.8 3.3 7.6 2.9 11.5 3 8.2-0.2 16.3 0.3 24.4-0.3 4.5-0.2 8.3-3.4 10-7.4 2.1-5.4 4.1-11.4 2.5-17.1-1.1-3.9-5.4-5.3-9.1-5.2-8.4 0.2-16.8-0.3-25.2 0.3z"/>
		<path id="Layer" class="s0" d="m457 541.1c14.7 0 29.4 0 44.2 0q-2.3 10.3-4.5 20.6c4-5.5 8.5-10.9 14.7-14.2 12.1-6.5 26.3-6.8 39.6-6.1 10.8 0.9 22.4 3.2 30.3 11.1 7.2 7.3 8.9 18.2 8.2 28.1-0.7 12-4.3 23.5-7.2 35.1-6.8 25.8-13.4 51.7-20.2 77.5-15-0.1-30 0-45-0.1 6.5-24 13-48 19.5-72 2.7-10.4 6.5-21.1 4.8-31.9-0.9-6.2-6.6-10.2-12.5-10.9-10.2-1.3-21.7-0.9-30.3 5.6-8.1 6.4-11.7 16.5-14.5 26-7.2 27.8-14.3 55.5-21.5 83.2q-22.7 0-45.3 0c13.2-50.6 26.4-101.3 39.7-152z"/>
		<path id="Layer" class="s0" d="m799.7 541.1q23.1 0 46.3 0-19.8 76-39.7 152c-15.6 0-31.3 0-46.9 0 13.4-50.6 26.9-101.3 40.3-152z"/>
		<path id="Layer" class="s0" d="m833.5 693.1c13.5-50.6 27-101.4 40.7-152 14.6 0.1 29.2 0 43.9 0-1.4 6.9-2.9 13.7-4.2 20.6 4.6-6.9 10.5-13.1 18.3-16.1 11.1-4.5 23.3-4.8 35.2-4.3 10.1 0.7 20.8 2.5 28.8 9.2 6.9 5.8 9.8 15 10.1 23.7 0.6 14.2-3.4 28-6.9 41.6q-10.1 38.7-20.1 77.3-22.1 0.1-44.3 0 10.8-41.9 21.7-83.7c1.8-7.3 3.9-15.3 1.2-22.6-2.1-5.7-8.3-8.1-13.9-8.7-9.3-0.9-19.6-0.6-27.5 5.1-7.6 5.7-11.1 15.1-13.5 23.9-7.5 28.7-15.1 57.3-22.5 86-15.6 0.1-31.3 0-47 0z"/>
	</g>
	<g id="#0a94d6ff">
		<path id="Layer" class="s1" d="m594.2 74.4c45.9-10.8 93.8-12.8 140.6-6.6 43.2 5.8 85.8 18.8 123.3 41.4 27.2 16.5 51.7 38.6 67.2 66.8l0.1 0.2-0.1 0.1c-12.4 9-24.2 18.9-36.4 28.3-41.6 32.7-83.2 65.5-124.8 98.2-4.3 2.6-9.5 4.3-14.6 3.9-3.7-0.5-4.4-4.9-4-7.9 1.9-15.9 9.4-30.4 18-43.7 20.3-31.3 43.1-60.8 64.3-91.4 3.2-4.8 7.6-9.3 8.2-15.3 0.3-5.7-3.8-10.1-6.7-14.6-3-4.7-6.1-10-11.5-12-5-1.8-10 1.1-13.5 4.5-36.5 36.1-72.9 72.4-109.5 108.4 4.9-8.9 10.5-17.5 15.3-26.5 5-8.8 8.7-18.2 13.6-27.1 5.5-11 12.5-22.2 12.8-34.9 0-7.3-1-15.5-6.8-20.7-5.5-5.1-13.8-5.3-20.6-3.2-11.1 3.4-20.4 10.9-28.5 19-19.8 21.1-39.5 42.3-59.3 63.4 4.9-17.2 12.6-33.5 16.7-50.9 0.6-3.2 1.3-6.5 0.3-9.7-2.6-9.3-8.6-17.1-15.2-24.1-2.2-2.7-6.1-2.9-9.3-2.5-6.1 0.9-11.8 3.3-17.4 5.7-21.4 9.8-41.9 21.6-64.1 29.8 4.3-4.1 9-8.1 12.1-13.2 0.8-1.5 1.8-3.4 1-5.1-1.7-1.9-4.5-1-6.5-0.4-8.6 3-14.5 10.2-21.2 15.9-6.7 5.4-11.4 13-14.2 21-2.2 9-4.1 18.1-6.2 27-0.6 2.7-1.4 6.1 0.9 8.3 2.7 2.5 6.8 1.9 10.1 1.2 9.4-2.2 17.6-7.4 25.8-12.1 17.9-10.2 35.6-20.6 53.6-30.7 5.9-2.9 12.5-6.8 19.4-5.3 6.1 2.5 4.6 10.4 3.4 15.5-5.1 18.1-15.2 34.4-25.9 49.6-18.4 24.3-36.9 48.6-55.3 72.8-1.5 2.2-3.5 4.1-4.5 6.6 0 9.8 2.6 19.7 7.5 28.3 2.9 4.9 7.2 9.9 13.3 10.5 5.7 0.4 10.4-3.7 13.7-7.9 17.9-27.4 37.2-53.9 56-80.7 7.6-11.4 17-21.4 25.6-32 13.3-15.5 25.6-32 40.1-46.4 3.2-2.9 6.2-6.5 10.7-7.2 0.2 5.2-2.5 9.9-4.5 14.5-16.9 34.1-38.8 65.4-59.9 97-5.5 8.6-13.3 16.1-16 26.2-2.9 10.2 0 21 4.2 30.4 1.7 3.6 3.5 7.8 7.4 9.5 3.3 1.3 6.8-0.4 9.4-2.4 5.8-4.5 9.8-10.9 14.4-16.7q20.1-25.1 40.2-50.3c21.8-28.6 50-51.4 75.7-76.4-12.2 18.2-25 36.2-35.6 55.4-8.3 15.1-15.9 31-18.5 48.2-2.1 13.2-0.2 27.3 6.5 39 2.7 4.4 8.3 5.7 13.1 5.7 10.2-0.1 19.9-4 28.8-8.7 8.3-4.4 15.9-9.9 23.1-16 51-43.1 102.1-86.1 153.1-129.2-0.2-0.4-0.4-1.1-0.6-1.5 1.3 1 2.5-0.3 3.6-1-0.9 1.4-1.6 2.9-2.3 4.5 9.2 27.7 5.5 58.9-8.3 84.6-8.7 16.7-21.1 31.3-35.2 43.9-24.6 21.8-54.1 37.3-85 48.3-48 16.8-99.5 22.6-150.2 19.3-47.1-3.4-94-14.8-135.8-37-28-14.9-53.9-35-72-61.3-11.8-17.4-19.7-37.7-21-58.8-1.4-21.8 4.3-43.7 15-62.6 11-19.5 26.8-36 44.5-49.6 31.8-24.4 69.6-40 108.4-49.3z"/>
		<path id="Layer" class="s1" d="m816.2 478.4c15.6 0 31.2 0 46.8 0-3.9 13.8-7.7 27.6-11.7 41.3-15.4 0-30.8 0.1-46.2 0.2q5.5-20.8 11.1-41.5z"/>
		<path id="Layer" fill-rule="evenodd" class="s1" d="m1203.5 714.2c8.2-2.3 17.9-3 25.4 2 3.3 2.1 6 6.5 4.1 10.4-2.3 4.1-6.5 6.5-10.4 8.9-1.2-4-2.8-8.3-6.4-10.8-5.2-3.5-12.4-2.7-17.4 0.9-5.2 3.7-8.5 9.5-11.1 15.2-5.8 13.7-7.7 28.5-10.7 42.9 16-0.2 32.2 0.5 48.2-0.6 11.6-12 29.2-18.2 45.6-14.8 7.7 1.7 14.7 7.9 15.7 16 1.5 9-2.9 17.8-9.4 23.8-13.7 12.7-32.7 18.8-51.2 18.7 0 7.1 1.2 15.1 6.7 20.2 5.5 5.1 13.7 5.4 20.7 4.3 15.3-2.6 28.5-11.8 40-21.7 13.5-11.9 24.8-26.1 34.2-41.4q3.8 1.8 7.4 3.9c-9.9 18.4-23 35.1-39.2 48.4-12.7 10.3-27 19.4-43.2 22.8-9.7 1.9-20.3 2.1-29.1-2.8-8.5-4.8-13.9-13.8-15.4-23.3-2.4-14.8 0.4-30.5 8.4-43.3-13.8 0.7-27.7 0.3-41.6 0.4-5.1 25.9-10.4 51.7-15.3 77.7-1.1 7.7-2.8 16.1 0.8 23.4-5.1 1.5-10.4 3.5-15.7 2.5-3.9-0.9-4.9-5.4-4.5-8.8 0.7-11.5 3.5-22.7 5.7-34 2.3-12.5 5.4-24.9 7.1-37.5-9.1 13.6-19.9 26.2-32.9 36.3-7.9 6-17.5 11.3-27.8 10.5-7-0.3-13.6-4.6-16.6-11-2.7-5.4-3-11.7-1.9-17.6 2.4-14.3 6.2-28.4 7.1-42.8 0.4-3.4-0.7-6.7-2.7-9.5 5.1-0.7 10.1-2.7 15.3-2.3 4.3 0.8 5 6 4.8 9.7-0.7 13.3-4.4 26.2-6.6 39.3-0.9 5.6-2.8 11.7-0.4 17.3 1.7 4.1 6.9 5 10.8 3.9 7.9-1.9 14.2-7.3 20.1-12.5 14.1-13 25.8-28.4 36-44.6-8.5-0.3-17 1.6-24.2 6.3 1.3-5.2 2.1-11.5 7-14.5 6-2.7 12.7-2.2 19.1-2.4 2.8-13.8 5-28 11.2-40.9 6.2-13.4 18.1-24.2 32.3-28.6zm34.7 75c-6.5 8.5-10.2 18.8-11.6 29.4 11.5-0.7 23.2-4.2 32.3-11.6 5.4-4.3 10-10.2 10.9-17.3 0.5-3.9 0.3-8.5-2.6-11.5-3.1-2.9-7.7-2.6-11.5-1.8-7.3 1.6-13.1 6.9-17.5 12.8z"/>
		<path id="Layer" class="s1" d="m984.4 727.1c5.6-1.7 11.1-4.3 17.1-4 3.6 0.4 4.4 4.8 3.7 7.8-6.4 33.6-13.6 66.9-19.7 100.5-0.4 5-2.6 10.9 0.7 15.2 4.1 4.5 10.7 5 16.4 5.5 16.8 1 33.5-2.5 49.1-8.4-2.1 6.1-5.1 13.2-11.9 15.3-12.3 4.2-25.3 5.6-38.2 6.3-9.5 0.3-19.7 1-28.3-3.7-5.1-2.7-8.1-8.4-8-14.2 0.1-6.1 1.4-12.2 2.5-18.3 5.7-29.1 11.6-58.1 17.3-87.3 0.8-4.8 2.4-10.3-0.7-14.7z"/>
		<path id="Layer" class="s1" d="m616.9 732.3c-2.6 8.1-7.6 15.3-14.3 20.5-5.2 4.1-10.2 8.6-16.4 11-2 0.8-5 0.7-5.5-1.9-0.7-4.2 0.3-8.4 1.5-12.4 6.5-0.4 12.5-3.3 18.3-6.2 5.8-3 11.4-6.6 16.4-11z"/>
		<path id="Layer" class="s1" d="m1113 742.2c5.1-2.7 10-6 14.4-9.9-2.6 7.8-7.3 15-13.8 20.1-5.2 4.1-10.4 8.7-16.6 11.2-2 0.9-5.2 1-5.8-1.6-0.8-4.2 0.3-8.5 1.4-12.5 7.3-0.5 14-3.9 20.4-7.3z"/>
		<path id="Layer" class="s1" d="m185.5 744.7c11.6-10.8 28.6-13.8 43.9-11.3 5 1 10.9 2.8 13.5 7.7 1.9 5.2-1.3 10.4-3.9 14.7-3.1-5.2-7.3-10.1-13.2-12.3-9.8-3.7-22.1-2.5-29.7 5.4-7.4 7.1-8.9 21-0.8 28.1 12.6 13.1 28.4 23.7 36.9 40.1 5 9.2 4.1 20.5-0.2 29.8-4.9 10.3-14.5 17.8-25 21.8-8.4 3.1-17.6 4.1-26.5 3.5-8.9-0.7-17.9-3.9-24-10.5-3.9-4.3-6.1-10.5-4.7-16.3 1.8-5.5 6.6-9.4 11-12.9-0.1 9.8 3.6 20.3 12.3 25.6 13.5 7.9 32.9 4.7 42.3-8 4.3-5.6 5.3-13.6 1.6-19.7-7.5-13.8-20.7-22.9-31.3-34-6-6.4-11.5-13.9-13-22.7-1.4-10.7 2.8-21.9 10.8-29z"/>
		<path id="Layer" fill-rule="evenodd" class="s1" d="m859.3 762.9c5-2.1 10.4-2.5 15.7-3.1-4.1 9.4-5.9 19.5-7.7 29.4-2.6 14.4-4.3 28.8-6.1 43.3 20.6-12.5 40.3-26.8 56.4-44.8 2.7 0.6 4.9 2.9 7.4 4.2-17.4 22.2-41 38.3-64.4 53.6-0.8 11.2-1.4 22.4-4 33.4-2.9 12.2-11.1 22.6-20.9 30.1-11.1 8.3-25.6 11.8-39.2 9.8-7.6-1.1-15.2-4.9-19.2-11.6-4.5-8-2.5-18.6 3.8-25.1 6.1-6.3 13.8-10.6 21.3-15q20.5-11 40.7-22.4c1.1-11.2 2-22.5 3.1-33.6-6.2 12.4-15.4 23.3-26.4 31.8-6 4.6-12.7 8.7-20.1 10.4-6.6 1.4-13.9 0.5-19.1-3.9-4-3.2-6.4-8-7.5-12.9-6.7 8.6-13.7 17.4-23.3 22.9-5.6 3.1-12.7 4.2-18.5 1-5.2-2.8-7.6-8.6-8.9-14.1-3.5-15-2.3-30.6-2.9-45.8-0.3-4.6-0.6-9.4-2.3-13.7-1-2.8-4-4.9-7-4-4.5 1.3-7.7 4.8-10.8 8.1-13.7 16.3-23.2 35.5-33.7 53.9-2.6 5.4-6.6 11.6-4 17.8-4 1.4-8.6 2.9-12.6 1-3.7-1.6-4.6-6.1-4.2-9.7 1-15.4 3.1-30.6 4.2-46-8.9 14.1-19.2 27.5-31.3 39-7.6 7.1-16.1 13.6-26.2 16.5-7.3 2.1-16 1.4-21.9-3.9-6.1-5.3-7.9-14-6.8-21.8 2.3-14.9 6.5-29.6 7.4-44.7 0.4-3.4-0.7-6.7-2.7-9.5 5.1-0.7 10.2-2.7 15.4-2.3 4.7 1.1 5 6.8 4.7 10.7-1.2 16.3-6.2 31.9-8.1 48.1-0.4 4.1 0.6 9.4 4.9 11.1 5.7 2 11.6-0.9 16.5-3.8 9.7-6.4 17.8-15.1 25.4-23.8 8.6-10.3 16.5-21.2 23.3-32.7 0.6-4.1-1.4-8.3-3.6-11.7 5.2-1.6 10.3-4.3 15.8-3.8 4.7 0.8 5.5 6.4 5.3 10.3-0.7 15.3-2.8 30.6-3.9 45.9 7.1-15.1 15-30 25-43.4 5.7-7.4 12.2-14.7 20.8-18.7 5.8-2.7 13.5-3 18.5 1.6 5.5 5.1 7.2 12.9 8.3 20 1.7 14.8 0.2 29.9 2 44.7 0.6 3.7 1.1 8.1 4.4 10.5 3.4 2 7.6 0.2 10.6-1.8 7.1-5 11.9-12.4 16.8-19.4 1.8-3 4.3-5.6 5-9.1 3.4-13.2 11.7-24.7 21.4-34 8.3-7.7 18.8-13.5 30.2-14.3 9.5-0.9 18.8 1.9 27.2 6 1.1-3.8 1.9-8.7 5.8-10.7zm-59.8 34.1c-6.1 10-9.4 21.8-8.2 33.5 0.4 4 3 8.2 7.3 8.5 6.6 0.7 12.4-3.5 17.4-7.3 14.2-11.8 25.6-26.9 34.6-43-7.4-7.9-18.4-13.7-29.4-11.1-9.9 2.6-16.6 11.2-21.7 19.4zm1.8 84.9c-4.4 4.1-8.8 9.3-8.6 15.7 0.1 5.4 4.7 9.5 9.6 11.1 11.1 3.3 24.4-0.7 30.8-10.7 8-12.3 9-27.7 9.2-42-13.8 8.4-28.9 15-41 25.9z"/>
		<path id="Layer" class="s1" d="m454.7 766.2c4.7-2 9.8-4.2 15.1-3.3 6.3 2.2 9.6 8.7 12.6 14.2 10.6 21.8 15.3 45.9 18.4 69.8 11-14 20.5-29.2 27.6-45.5 3.9-9.1 7.1-18.6 8.2-28.5 4.4 2 9.3 4.1 11.9 8.4 2.1 3.9-0.3 8.2-1.8 11.8-7.1 14.8-16 28.6-25.4 42-5.8 7.9-11.3 16.1-18.3 22.9-5.3 5.4-13.3 6-20.3 6.7 3.1-11.2 1.7-23-0.2-34.3-3-15.5-8.1-30.5-15-44.6-3.4-7.1-7.9-13.5-12.8-19.6z"/>
		<path id="Layer" fill-rule="evenodd" class="s1" d="m284.9 776.7c10.1-7.3 23.1-10.5 35.5-8.9 6.7 1 13.3 4.7 16.5 10.8 3.5 7.1 2.3 16-1.9 22.5-4.7 7.4-12 12.7-19.6 16.8-11.4 6.2-24.5 8.8-37.4 8.9 0.2 7 1.2 14.9 6.6 20 5.5 5.2 13.8 5.6 21 4.5 13.6-2.3 25.5-10 36.1-18.5 13.7-11.4 25.4-25.1 35-40 1.4-4.5 0.6-9.6-2.1-13.4 5.3-1.5 10.7-3.5 16.2-2.9 3.1 0.6 4.4 4.1 4.3 6.9-0.1 5.4-1.3 10.6-2.3 15.9-2.4 11.4-4.4 22.8-6.8 34.2 9.3-17.5 19.5-34.9 33.2-49.3 6.3-6.5 13.3-12.7 22-15.6 4.9-1.6 10.9-1.9 15.2 1.5 3.1 2.2 4.5 6.6 2.6 9.9-2.8 5.3-7.6 8.9-12 12.6-1.6-2.6-3.5-5.4-6.6-6.3-4.4-1.4-8.9 0.7-12.5 3.3-7 5-12.5 11.9-17.6 18.8-9 12.4-17 25.7-23 39.8-1.8 4.3-3.4 8.9-3.3 13.7-4.5 2-9.8 3.9-14.5 1.5-3.2-1.5-3.8-5.4-3.3-8.5 1.7-14 5.2-27.7 7.6-41.6-12.4 16.3-27.8 30.7-45.7 40.8-12.6 7.2-27.4 11.9-42.1 9.9-8.8-1.2-16.9-6.6-21.3-14.3-5.7-9.7-6.1-21.4-4.6-32.3 2.1-16.3 11.5-31.1 24.8-40.7zm11.4 6c-10.2 9.2-15.7 22.5-17.6 35.9 13.5-0.7 27.3-5.6 36.7-15.6 5.2-5.4 8.1-13.4 6.2-20.9-0.7-3.1-3.3-5.5-6.5-6-6.9-1.1-13.8 2-18.8 6.6z"/>
	</g>
</svg>