<svg version="1.2" xmlns="http://www.w3.org/2000/svg" viewBox="0 0 1614 352" width="1614" height="352">
	<title>Dr</title>
	<style>
		.s0 { fill: #4b2a91 } 
	</style>
	<g id="layer1">
		<g id="g7902">
			<path id="path5605" fill-rule="evenodd" class="s0" d="m137.2 218.7c0 54.3-36.1 85.8-85 85.8h-46c-3 0-5.5-2.5-5.5-5.5v-160.9c0-3 2.5-5.5 5.5-5.5h46.2c49 0 84.8 31.8 84.8 86.1zm-131 85.8v-171.9c-3 0-5.5 2.5-5.5 5.5v160.9c0 3 2.5 5.5 5.5 5.5zm96.4-85.8c0-37.3-23.3-55-51.4-55h-17.1v109.8h16.9c28.1 0 51.6-17.5 51.6-54.8zm143.9 43.3c12.4 0 22.3 10 22.3 22.1 0 12.1-9.9 22.1-22.3 22.1-12.1 0-22-10-22-22.1 0-12.1 9.9-22.1 22-22.1zm176 37c1.5 3 0.3 5.5-2.7 5.5h-26.1c-3 0-6.8-2.5-8.3-5.5l-31-60.7h-17.4v60.7c0 3-2.5 5.5-5.5 5.5h-22.7c-3 0-5.5-2.5-5.5-5.5v-160.9c0-3 2.5-5.5 5.5-5.5h61.6c33.4 0 54.7 23 54.7 52.9 0 24-14 42.1-36.6 48.7zm-31.5-113.3c0-14.6-9.9-24.1-26.8-24.1h-27.2v47.8h27.2c16.9 0 26.8-9.7 26.8-23.7zm-160.1-1v32.4c-3.7-0.7-6.8-0.9-9.7-0.9-16.5 0-30.8 8-30.8 33.7v49c0 3-2.5 5.5-5.5 5.5h-21.2c-3 0-5.5-2.4-5.5-5.4v-108.5c0.1-2.9 2.6-5.3 5.5-5.3h20.6c2.9 0.2 5.1 2.5 5.1 5.4v12.3c7.3-15.8 23.8-18.7 34-18.7 2.6 0 5 0.2 7.5 0.5zm747.2 5.9l-70.1 155.7c-1.6 2.9-5.2 5.2-8.1 5.2h-23.2c-3 0-4.2-2.5-2.7-5.5l25.6-56.6-47.9-98.7c-1.8-3-0.6-5.5 2.4-5.5h24.9c3 0 6.9 2.5 8.6 5.5l29.2 64.3 27-64.4c1.7-2.9 5.6-5.4 8.6-5.4h23.3c3 0 4 2.4 2.4 5.4zm133.5 78.3c0 19.3-15 39.2-46.3 39.2-31.5 0-44.8-18-48.5-31.5-0.6-2.8 1-5.6 3.7-6.4l20.3-4.4c1.3-0.2 2.5 0.6 2.9 1.8 1.7 8.5 8.6 15.8 21.4 15.8 10.6 0 15.8-5.6 15.8-11.9 0-5.3-3.7-9.7-12.9-11.6l-15.7-3.7c-23-5.1-33.4-18.9-33.4-35.6 0-21.3 18.8-39 44.5-39 29.6 0 42.1 16.4 45.7 29.2 0.5 2.7-1 5.4-3.7 6.2v0.1l-17.3 3.8c-2.9 0.9-5.3-0.9-6.1-3.7v0.1c-2.4-5.8-7.7-11.3-18.3-11.3-8.5 0-15.3 5.1-15.3 11.9 0 5.8 4.4 9.5 10.9 10.7l17 3.6c23.4 4.9 35.3 19.2 35.3 36.7zm-561.4-25.6c0 1.6-0.1 3.1-0.2 4.6 0 3-2.4 5.4-5.4 5.4h-80.2c0.7 15.8 14.1 27.1 30.1 27.1 13.2 0 21.1-5.8 25.5-14.4 1.5-2.1 3.8-2.9 5.7-2.5l17.3 5.1c2.6 0.8 4.1 3.2 3.9 5.8-7.3 18.7-25.4 33.7-52.7 33.7-32.7 0-61.5-23.5-61.5-63.8 0-38 28.1-62.8 58.6-62.8 36.8 0 58.9 23.6 58.9 61.8zm-31.8-12.1c-0.4-11.8-8.2-23.5-26.6-23.5-16.7 0-25.9 12.6-26.6 23.5zm167.1 73.1v0.1h-22c-1.2 0-2.2-0.8-2.7-1.8v-0.1 0.1c-0.3-1.9-0.6-4.3-0.7-7.1-0.1-1.3-0.2-2.8-0.2-4.5v0.1c0-0.2 0-0.3 0-0.5-5.3 9.5-17.4 16.8-33.4 16.8-33.9 0-58.1-26.7-58.1-62.8 0-34.9 23.4-62.3 57.1-62.3 20.6 0 30.3 8.4 33.7 14.8v-2h-0.2v-60.6c0-0.3 0.1-0.5 0.2-0.8 0.3-2.6 2.6-4.8 5.3-4.8h20.8c3 0 5.5 2.5 5.5 5.6v53.7l0.1 111.2c-0.3 2.7-2.6 4.9-5.4 4.9zm-25.8-60c0-21.3-12.9-33.2-29.3-33.2-16.5 0-29.6 12.1-29.6 33.4 0 21.4 12.6 34 29.6 34 16.4 0 29.3-12.6 29.3-34.2zm169.1 60l0.1 0.1h-22.1c-1.2 0-2.3-0.8-2.7-1.8v-0.1 0.1c-0.3-1.9-0.6-4.3-0.7-7.1-0.1-1.3-0.2-2.8-0.2-4.5v0.1-0.5c-5.4 9.5-17.5 16.8-33.4 16.8-34 0-58.2-26.7-58.2-62.8 0-34.9 23.5-62.3 57.2-62.3 20.6 0 30.2 8.4 33.6 14.8v-2h-0.1v-60.6c0-0.3 0.1-0.5 0.1-0.8 0.4-2.6 2.6-4.8 5.4-4.8h20.7c3.1 0 5.6 2.5 5.6 5.6v53.7 111.2c-0.2 2.7-2.5 4.9-5.3 4.9zm-25.8-60c0-21.3-12.9-33.2-29.3-33.2-16.5 0-29.6 12.1-29.6 33.4 0 21.4 12.6 34 29.6 34 16.4 0 29.3-12.6 29.3-34.2zm225.4-90.3c-0.2 0.3-0.3 0.6-0.4 0.9l-18 35.9c-0.6 1-1.8 1.8-2.8 1.8h-10.8v-0.1c-1.1 0-2-0.9-2-2 0-0.1 0-0.3 0.1-0.5l10.7-24c-8.5-2.1-14.9-9.8-14.9-19 0-10.8 8.8-19.7 19.6-19.7 11 0 19.8 8.9 19.8 19.7 0 2.4-0.5 4.8-1.3 6.9q0 0.1 0 0.1z"/>
			<path id="path5645" fill-rule="evenodd" class="s0" d="m1376.1 351.5c-2.2 0-4.2-0.7-5.8-1.9-47.5-41.5-145.7-134.6-169.6-169.7-19.5-28.6-25.5-62.6-17.7-90.9 12-46.5 56.9-81 115.1-77.9 11.8 0.6 23.1 3.5 33.5 8.1 31.5 14.3 53.6 45.7 54.5 82.4v240c-0.1 5.5-4.5 9.9-10 9.9zm-28.1-137.7c-9.7 0-17.6 7.9-17.6 17.6 0 9.7 7.9 17.7 17.6 17.7 9.7 0 17.6-8 17.6-17.7 0-9.7-7.9-17.6-17.6-17.6zm111.7 91.1c-24.2 0-43.8-19.5-43.8-43.7 0-24.3 19.6-43.8 43.8-43.8 24.2 0 43.8 19.5 43.8 43.8 0 24.2-19.6 43.7-43.8 43.7zm-28.7 27c0 8.3-6.7 15.1-15 15.1-8.4 0-15.2-6.8-15.2-15.1 0-8.4 6.8-15.2 15.2-15.2 8.3 0 15 6.8 15 15.2zm112-104.7c-32.1 0-58.1-26-58.1-58.2 0-32.1 26-58.2 58.1-58.2 32.2 0 58.2 26.1 58.2 58.2 0 32.2-26 58.2-58.2 58.2zm71-157.5c0 16.8-13.7 30.5-30.5 30.5-16.9 0-30.5-13.7-30.5-30.5 0-16.9 13.6-30.5 30.5-30.5 16.8 0 30.5 13.6 30.5 30.5zm-147.2 42.8c-30.8 0-55.8-25-55.8-55.9 0-30.9 25-55.9 55.8-55.9 30.9 0 55.9 25 55.9 55.9 0 30.9-25 55.9-55.9 55.9zm2.1 49.2c0 18.4-14.8 33.2-33.2 33.2-18.3 0-33.1-14.8-33.1-33.2 0-18.4 14.8-33.2 33.1-33.2 18.4 0 33.2 14.8 33.2 33.2z"/>
		</g>
	</g>
</svg>