<svg clip-rule="evenodd" fill-rule="evenodd" stroke-linejoin="bevel" stroke-miterlimit="2.613" viewBox="0 0 114 154" xmlns="http://www.w3.org/2000/svg"><path d="m0 0c12.779-8.904 18.686-23.241 16.483-38.429-1.819-11.801-10.006-22.159-20.508-28.511-8.283-13.235-23.624-19.769-39.427-16.951-11.087 2.041-21.277 9.547-27.074 19.604-13.136 8.657-19.392 23.179-17.348 38.809 2.089 11.965 9.354 23.664 21.135 28.84 8.626 12.96 23.701 19.414 39.24 16.608 11.166-2.219 21.546-9.383 27.499-19.97" fill-rule="nonzero" transform="matrix(.76162300754 0 0 -.76162300754 83.18412392 16.12786064)"/><path d="m0 0c-14.649 7.464-31.609 5.145-40.286-1.307-11.699-7.88-17.223-20.163-17.79-33.752.368-6.993 3.489-13.207 8.762-18.187-11.733 6.165-19.636 18.825-19.88 31.83-.209 14.052 6.642 26.465 19.024 33.798 7.259 4.022 15.769 6.171 24.667 4.379 10.306-1.667 19.672-7.662 25.503-16.761" fill="#f58220" fill-rule="nonzero" transform="matrix(.76162300754 0 0 -.76162300754 80.96867808 14.45569292)"/><path d="m0 0c-14.649 7.464-31.609 5.145-40.286-1.307-11.699-7.88-17.223-20.163-17.79-33.752.368-6.993 3.489-13.207 8.762-18.187-11.733 6.165-19.636 18.825-19.88 31.83-.209 14.052 6.642 26.465 19.024 33.798 7.259 4.022 15.769 6.171 24.667 4.379 10.306-1.667 19.672-7.662 25.503-16.761z" fill="none" stroke="#000" stroke-width=".71" transform="matrix(.76162300754 0 0 -.76162300754 80.96867808 14.45569292)"/><path d="m0 0c5.848-11.106 4.842-27.21-2.543-37.335-2.687-3.918-6.431-7.977-10.726-10.182 3.801 8.155 5.329 19.094 2.478 28.003-3.068 12.665-15.401 24.174-27.944 27.312-10.347 3.064-22.043.241-28.928-8.155 3.195 8.351 11.285 16.095 19.755 19.55 13.079 4.695 29.327 2.038 39.265-7.642 3.66-3.353 6.772-7.299 8.643-11.551" fill="#fdd1b0" fill-rule="nonzero" transform="matrix(.76162300754 0 0 -.76162300754 92.19760182 28.13289598)"/><path d="m0 0c5.848-11.106 4.842-27.21-2.543-37.335-2.687-3.918-6.431-7.977-10.726-10.182 3.801 8.155 5.329 19.094 2.478 28.003-3.068 12.665-15.401 24.174-27.944 27.312-10.347 3.064-22.043.241-28.928-8.155 3.195 8.351 11.285 16.095 19.755 19.55 13.079 4.695 29.327 2.038 39.265-7.642 3.66-3.353 6.772-7.299 8.643-11.551z" fill="none" stroke="#000" stroke-width=".71" transform="matrix(.76162300754 0 0 -.76162300754 92.19760182 28.13289598)"/><path d="m0 0c-6.474-11.727-6.214-29.268 1.573-40.181 8.314-10.93 19.987-18.751 34.18-17.41 6.71.989 12.807 4.441 17.394 9.952-5.131-13.431-19.514-22.703-33.826-22.467-13.793-.046-26.201 6.927-33.066 19.029-6.664 10.349-6.191 26.297-.284 36.909 3.101 5.738 8.037 11.149 14.029 14.168" fill="#fdd1b0" fill-rule="nonzero" transform="matrix(.76162300754 0 0 -.76162300754 30.94828546 15.44347132)"/><path d="m0 0c-6.474-11.727-6.214-29.268 1.573-40.181 8.314-10.93 19.987-18.751 34.18-17.41 6.71.989 12.807 4.441 17.394 9.952-5.131-13.431-19.514-22.703-33.826-22.467-13.793-.046-26.201 6.927-33.066 19.029-6.664 10.349-6.191 26.297-.284 36.909 3.101 5.738 8.037 11.149 14.029 14.168z" fill="none" stroke="#000" stroke-width=".71" transform="matrix(.76162300754 0 0 -.76162300754 30.94828546 15.44347132)"/><path d="m0 0c3.657-8.413 1.001-18.964-5.457-25.282-4.819-4.632-10.689-6.608-17.115-6.996-8.323.638-16.002 4.654-20.311 12.044-4.484 7.396-4.337 19.08 1.174 25.866 1.587 2.651 4.28 4.301 6.63 6.14 6.747 4.476 16.954 4.995 24.015.91 4.913-2.698 9.049-7.554 11.064-12.682" fill="#fff" fill-rule="nonzero" transform="matrix(.76162300754 0 0 -.76162300754 72.8512563 34.0383997)"/><path d="m0 0c3.657-8.413 1.001-18.964-5.457-25.282-4.819-4.632-10.689-6.608-17.115-6.996-8.323.638-16.002 4.654-20.311 12.044-4.484 7.396-4.337 19.08 1.174 25.866 1.587 2.651 4.28 4.301 6.63 6.14 6.747 4.476 16.954 4.995 24.015.91 4.913-2.698 9.049-7.554 11.064-12.682z" fill="none" stroke="#000" stroke-width=".71" transform="matrix(.76162300754 0 0 -.76162300754 72.8512563 34.0383997)"/><path d="m0 0c.309-.831.354-.964.471-1.587 3.22-15.9-4.097-31.522-17.391-39.873-10.522-6.874-27.23-7.253-37.97-.428-5.003 2.617-9.505 7.047-12.671 11.954 2.741-.799 5.049-1.95 7.812-2.713 16.628-4.325 33.208 2.427 42.571 16.407 6.004 8.252 8.663 21.419 4.167 30.997-1.627 3.719-4.759 7.056-7.909 9.958l.094.17c10.134-4.189 18.289-14.592 20.826-24.885" fill="#f58220" fill-rule="nonzero" transform="matrix(.76162300754 0 0 -.76162300754 83.20881838 43.96557262)"/><path d="m0 0c.309-.831.354-.964.471-1.587 3.22-15.9-4.097-31.522-17.391-39.873-10.522-6.874-27.23-7.253-37.97-.428-5.003 2.617-9.505 7.047-12.671 11.954 2.741-.799 5.049-1.95 7.812-2.713 16.628-4.325 33.208 2.427 42.571 16.407 6.004 8.252 8.663 21.419 4.167 30.997-1.627 3.719-4.759 7.056-7.909 9.958l.094.17c10.134-4.189 18.289-14.592 20.826-24.885z" fill="none" stroke="#000" stroke-width=".71" transform="matrix(.76162300754 0 0 -.76162300754 83.20881838 43.96557262)"/><g fill-rule="nonzero"><path d="m0 0c0-4.173.442-7.347 1.329-9.522.888-2.177 2.302-3.563 4.224-4.147.519-.161 1.227-.277 2.123-.351 1.304-.116 1.959-.476 1.959-1.086 0-.368-.139-.64-.425-.794-.275-.15-.842-.223-1.698-.223h-15.801c-.782 0-1.309.073-1.576.223-.269.154-.408.426-.408.794 0 .61.562.961 1.684 1.052.388.025.663.042.845.071 1.862.377 3.285 1.746 4.26 4.11s1.466 5.613 1.466 9.728v30.082c-.939 1.752-2.812 2.698-5.587 2.84-.655.028-1.165.062-1.52.108-.499.02-.87.119-1.128.297-.261.17-.388.423-.388.757 0 .394.136.675.422.845.275.162.794.241 1.534.241h17.042c.396 0 .717-.034.941-.108.224-.071.413-.187.569-.351.051-.043.207-.457.474-1.222.269-.774.595-1.429.975-1.97l22.612-35.204v23.253c0 4.031-.439 7.104-1.31 9.21-.878 2.103-2.267 3.416-4.184 3.937-.49.136-1.207.244-2.154.315-1.321.09-1.984.442-1.984 1.054 0 .394.156.675.456.845.303.162.853.241 1.667.241h16.067c.74 0 1.258-.079 1.559-.241.303-.17.456-.451.456-.845-.025-.612-.584-.964-1.681-1.054-.405-.026-.697-.046-.879-.071-2.06-.423-3.58-1.709-4.544-3.867-.966-2.148-1.451-5.306-1.451-9.45v-25.611c.7-.919 1.63-1.619 2.795-2.104 1.165-.496 1.752-.91 1.752-1.233 0-.235-.629-.666-1.888-1.287-1.253-.618-2.356-1.295-3.297-2.012-1.034-.774-2.035-1.746-3.019-2.923-.975-1.17-1.525-1.754-1.663-1.754-.352 0-.854.504-1.483 1.51-.113.171-.19.29-.232.352l-28.911 45.428z" transform="matrix(.76162300754 0 0 -.76162300754 78.9706962056 115.07363580912)"/><path d="m0 0v2.577h4.085l-4.057 9.731-.028-.062v3.223h2.001l9.766-22.057h-3.864l-2.775 6.588zm0 15.469v-3.223l-4.085-9.669h4.085v-2.577h-5.182l-2.795-6.588h-3.688l9.737 22.057zm-53.643-12.612v2.546h.034c2.197 0 3.748.303 4.658.901.904.598 1.36 1.593 1.36 2.994 0 1.309-.425 2.231-1.281 2.772-.856.536-2.435.808-4.737.808h-.034v2.591h.624c1.644 0 2.86-.063 3.637-.179.776-.125 1.476-.323 2.089-.598 1.105-.513 1.942-1.222 2.52-2.126.578-.91.862-1.979.862-3.206 0-1.191-.304-2.208-.905-3.053-.606-.842-1.505-1.502-2.701-1.981 1.012-.241 1.743-.647 2.174-1.214.431-.566.697-1.533.808-2.888l.303-3.64c.06-.776.182-1.358.363-1.74.19-.386.462-.661.833-.819v-.613h-4.113c-.331.459-.564 1.44-.691 2.948v.071l-.219 2.894c-.121 1.477-.49 2.432-1.122 2.872-.604.425-2.095.646-4.462.66m17.932 9.346v-18.791h-3.274v22.057h5.088l6.492-16.875c.19-.479.328-.853.414-1.12.09-.26.158-.496.206-.694.097.368.188.7.287.986.096.292.192.567.303.828l6.729 16.875h5.1v-22.057h-3.45v18.791c-.085-.317-.175-.64-.283-.966-.105-.324-.221-.644-.34-.961l-6.741-16.864h-3.365l-6.579 16.864c-.119.275-.224.575-.32.893-.1.323-.182.666-.267 1.034m-17.932 3.266v-2.591h-6.052v-7.475h6.052v-2.546h-6.015v-9.445h-3.523v22.057zm-24.012-15.469v2.577h4.085l-4.057 9.731-.028-.062v3.223h2.001l9.765-22.057h-3.863l-2.775 6.588zm-47.974 5.372h.196c2.075 0 3.529.283 4.348.839.825.561 1.239 1.519 1.239 2.877 0 1.309-.408 2.251-1.227 2.818-.82.566-2.18.853-4.094.853h-.462v2.71h.304c1.567 0 2.758-.068 3.577-.196.814-.127 1.548-.34 2.185-.643 1.069-.491 1.891-1.211 2.455-2.172.57-.958.856-2.08.856-3.37 0-1.225-.286-2.31-.856-3.251-.564-.936-1.397-1.687-2.491-2.243-.624-.323-1.367-.547-2.217-.68-.788-.13-2.058-.196-3.813-.204zm47.974 10.097v-3.223l-4.085-9.669h4.085v-2.577h-5.182l-2.795-6.588h-3.685l9.734 22.057zm-35.093-22.057v22.057h3.56v-9.063h13.59v9.063h3.577v-22.057h-3.577v10.33h-13.59v-10.33zm-18.663 11.96h5.782v-2.662h-5.782v-9.298h-3.558v22.057h9.34v-2.71h-5.782z" transform="matrix(.76162300754 0 0 -.76162300754 104.14233660479 147.62540315138)"/><path d="m0 0c0 5.502-.275 9.028-.828 10.576-.552 1.545-1.545 2.616-2.976 3.229-.542.232-1.423.394-2.648.493-1.224.091-1.837.459-1.837 1.088 0 .369.131.638.389.791s.751.224 1.465.224h24.089c.853 0 1.423-.071 1.715-.224.295-.153.442-.422.442-.791 0-.612-.751-.98-2.259-1.125-.76-.071-1.38-.153-1.857-.241-2.043-.351-3.449-1.341-4.206-2.959-.768-1.61-1.148-5.307-1.148-11.061v-20.801c0-2.202.122-3.9.371-5.096.25-1.197.655-2.248 1.216-3.167.938-1.564 2.353-2.752 4.244-3.543 1.888-.799 4.201-1.196 6.942-1.196 5.096 0 8.787 1.278 11.063 3.832 2.288 2.551 3.425 6.716 3.425 12.507v18.479c0 3.985-.448 7.024-1.344 9.139-.899 2.103-2.288 3.37-4.15 3.792-.561.137-1.276.244-2.154.315-1.372.119-2.064.496-2.089 1.125 0 .369.138.638.405.791.269.153.785.224 1.553.224h15.931c.853 0 1.42-.071 1.698-.224.283-.153.422-.422.422-.791 0-.583-.535-.918-1.613-.98-.501-.054-.87-.1-1.114-.145-1.774-.323-3.138-1.627-4.096-3.903-.958-2.265-1.431-5.341-1.431-9.199v-19.709c0-6.216-1.517-10.675-4.544-13.408-3.036-2.727-8.014-4.093-14.93-4.093-3.371 0-6.406.388-9.114 1.159-2.701.774-4.96 1.9-6.755 3.374-1.57 1.287-2.673 2.761-3.319 4.424-.638 1.662-.958 4.199-.958 7.589z" transform="matrix(.76162300754 0 0 -.76162300754 36.39597008411 100.89221540872)"/><path d="m0 0c.139-.369.224-.658.266-.853.046-.207.071-.369.071-.513 0-.377-.071-.666-.198-.862-.139-.198-.337-.298-.612-.298-.536 0-1.469 1.097-2.795 3.3-.718 1.168-1.304 2.123-1.752 2.843-1.432 2.203-3.399 4.028-5.891 5.465-2.5 1.44-4.974 2.157-7.452 2.157-3.121 0-5.646-.79-7.58-2.372-1.93-1.573-2.897-3.623-2.897-6.123 0-1.196.25-2.268.74-3.22.493-.944 1.259-1.817 2.296-2.608.87-.683 4.726-1.987 11.557-3.903 1.794-.513 3.181-.916 4.173-1.197 4.382-1.258 7.625-3.092 9.737-5.476 2.114-2.39 3.166-5.411 3.166-9.063 0-5.082-1.837-9.255-5.511-12.517-3.665-3.266-8.418-4.901-14.229-4.901-1.554 0-3.209.141-4.97.439-1.768.289-2.769.442-3.019.442-1.165 0-2.182-.638-3.027-1.916-.853-1.278-1.406-1.916-1.655-1.916-.199 0-.372.071-.502.226-.136.154-.292.465-.473.933l-7.039 16.537c-.093.236-.187.488-.3.74-.111.261-.173.423-.173.493 0 .352.079.63.232.845.165.207.371.315.646.315.426 0 1.279-.944 2.554-2.84 1.285-1.897 2.597-3.564 3.943-4.992 2.336-2.526 4.666-4.36 6.994-5.502 2.318-1.134 4.864-1.701 7.633-1.701 3.164 0 5.752.862 7.761 2.582 2.01 1.727 3.019 3.929 3.019 6.619 0 4.215-4.889 7.776-14.66 10.681-.692.207-1.208.36-1.545.459-5.84 1.78-9.885 3.776-12.127 5.99-2.251 2.211-3.373 5.15-3.373 8.83 0 4.524 1.752 8.328 5.252 11.412 3.513 3.093 7.875 4.64 13.111 4.64 1.553 0 3.311-.189 5.269-.578 1.968-.385 3.158-.581 3.561-.581 1.122 0 1.916.547 2.372 1.653.459 1.097.828 1.644 1.097 1.644.153 0 .309-.097.457-.295.147-.198.3-.558.482-1.072z" transform="matrix(.76162300754 0 0 -.76162300754 29.41950333504 97.26688989283)"/></g></svg>